<svg width="162.000000" height="52.000000" viewBox="0 0 162 52" fill="none" xmlns="http://www.w3.org/2000/svg" xmlns:xlink="http://www.w3.org/1999/xlink">
	<desc>
			Created with Pixso.
	</desc>
	<defs>
		<clipPath id="clip2505_7536">
			<rect id="logo" rx="-0.038028" width="161.923950" height="51.923943" transform="translate(0.038028 0.038028)" fill="white" fill-opacity="0"/>
		</clipPath>
	</defs>
	<rect id="logo" rx="-0.038028" width="161.923950" height="51.923943" transform="translate(0.038028 0.038028)" fill="#FFFFFF" fill-opacity="0"/>
	<g clip-path="url(#clip2505_7536)">
		<path id="Vector" d="M20.58 23.22C19.38 24.4 17.57 24.29 16.44 23.04C15.36 21.85 15.35 19.97 16.54 18.78C17.69 17.66 19.55 17.71 20.63 18.9C21.77 20.15 21.72 22.09 20.58 23.22ZM30.93 34.57C29.73 35.76 27.92 35.64 26.84 34.46C25.7 33.21 25.75 31.39 26.95 30.2C28.09 29.08 29.9 29.07 31.04 30.31C32.12 31.5 32.07 33.45 30.93 34.57Z" fill="#64EE85" fill-opacity="1.000000" fill-rule="nonzero"/>
		<path id="Vector" d="M26.42 29.14C24.99 30.55 22.84 30.42 21.55 29.01C20.2 27.52 20.19 25.28 21.62 23.88C22.97 22.54 25.19 22.6 26.54 24.08C27.83 25.49 27.77 27.8 26.42 29.14Z" fill="#64EE85" fill-opacity="1.000000" fill-rule="nonzero"/>
		<path id="Vector" d="M15.72 28.37C14.82 29.26 13.36 29.16 12.5 28.23C11.65 27.29 11.69 25.83 12.59 24.94C13.49 24.05 14.95 24.03 15.8 24.97C16.66 25.9 16.62 27.49 15.72 28.37Z" fill="#64EE85" fill-opacity="1.000000" fill-rule="nonzero"/>
		<path id="Vector" d="M24.75 38.29C23.86 39.18 22.45 39.14 21.6 38.21C20.75 37.27 20.73 35.75 21.63 34.86C22.53 33.97 24.05 34.02 24.9 34.95C25.75 35.89 25.65 37.41 24.75 38.29Z" fill="#64EE85" fill-opacity="1.000000" fill-rule="nonzero"/>
		<path id="Vector" d="M13.55 9.17C13.15 8.74 13.17 8.01 13.65 7.53C14.06 7.12 14.77 7.13 15.17 7.57C15.62 8.07 15.6 8.8 15.18 9.21C14.7 9.69 14 9.67 13.55 9.17Z" fill="#64EE85" fill-opacity="1.000000" fill-rule="nonzero"/>
		<path id="Vector" d="M5.8 16.73C5.4 16.29 5.42 15.57 5.84 15.15C6.32 14.67 7.02 14.69 7.42 15.13C7.87 15.63 7.86 16.36 7.38 16.83C6.96 17.25 6.25 17.23 5.8 16.73Z" fill="#64EE85" fill-opacity="1.000000" fill-rule="nonzero"/>
		<path id="Vector" d="M3.15 12.91C2.83 12.55 2.84 11.96 3.18 11.62C3.57 11.23 4.14 11.25 4.47 11.61C4.84 12.01 4.82 12.6 4.43 12.99C4.09 13.33 3.52 13.32 3.15 12.91Z" fill="#64EE85" fill-opacity="1.000000" fill-rule="nonzero"/>
		<path id="Vector" d="M10.17 5.79C9.84 5.43 9.86 4.84 10.2 4.5C10.59 4.11 11.16 4.13 11.48 4.48C11.86 4.89 11.84 5.48 11.45 5.87C11.11 6.21 10.54 6.19 10.17 5.79Z" fill="#64EE85" fill-opacity="1.000000" fill-rule="nonzero"/>
		<path id="Vector" d="M4.89 7.26C4.49 6.82 4.51 6.09 4.92 5.67C5.34 5.26 6.05 5.28 6.45 5.72C6.9 6.22 6.88 6.95 6.46 7.36C6.04 7.78 5.34 7.75 4.89 7.26Z" fill="#64EE85" fill-opacity="1.000000" fill-rule="nonzero"/>
		<path id="Vector" d="M17.14 13.51C16.46 12.77 16.55 11.62 17.21 10.96C17.93 10.25 18.98 10.28 19.66 11.03C20.29 11.72 20.26 12.81 19.54 13.52C18.88 14.18 17.77 14.2 17.14 13.51Z" fill="#64EE85" fill-opacity="1.000000" fill-rule="nonzero"/>
		<path id="Vector" d="M8.93 21.62C8.25 20.88 8.28 19.78 8.99 19.07C9.66 18.42 10.76 18.39 11.45 19.14C12.07 19.83 11.99 20.98 11.33 21.63C10.61 22.34 9.56 22.31 8.93 21.62Z" fill="#64EE85" fill-opacity="1.000000" fill-rule="nonzero"/>
		<path id="Vector" d="M8.04 11.97C7.42 11.29 7.51 10.13 8.16 9.48C8.88 8.77 9.93 8.8 10.56 9.49C11.24 10.23 11.22 11.33 10.49 12.04C9.84 12.69 8.73 12.72 8.04 11.97Z" fill="#64EE85" fill-opacity="1.000000" fill-rule="nonzero"/>
		<path id="Vector" d="M12.17 17.25C11.32 16.32 11.42 14.8 12.31 13.91C13.22 13.02 14.62 13.07 15.47 14C16.32 14.94 16.34 16.46 15.44 17.35C14.54 18.24 13.03 18.19 12.17 17.25Z" fill="#64EE85" fill-opacity="1.000000" fill-rule="nonzero"/>
		<path id="Vector" d="M40.22 37.39C40.63 37.82 41.33 37.81 41.79 37.32C42.2 36.9 42.19 36.17 41.78 35.74C41.31 35.26 40.62 35.26 40.21 35.69C39.75 36.18 39.75 36.91 40.22 37.39Z" fill="#64EE85" fill-opacity="1.000000" fill-rule="nonzero"/>
		<path id="Vector" d="M32.79 45.3C33.21 45.72 33.9 45.72 34.31 45.29C34.78 44.8 34.78 44.07 34.37 43.65C33.89 43.16 33.19 43.17 32.73 43.66C32.32 44.08 32.33 44.81 32.79 45.3Z" fill="#64EE85" fill-opacity="1.000000" fill-rule="nonzero"/>
		<path id="Vector" d="M36.41 48.14C36.74 48.48 37.31 48.48 37.64 48.13C38.03 47.73 38.02 47.14 37.68 46.79C37.3 46.4 36.73 46.4 36.35 46.8C36.02 47.15 36.02 47.74 36.41 48.14Z" fill="#64EE85" fill-opacity="1.000000" fill-rule="nonzero"/>
		<path id="Vector" d="M43.39 40.98C43.73 41.33 44.3 41.33 44.63 40.97C45.01 40.58 45.01 39.98 44.68 39.64C44.29 39.24 43.72 39.24 43.34 39.65C43.01 39.99 43.01 40.59 43.39 40.98Z" fill="#64EE85" fill-opacity="1.000000" fill-rule="nonzero"/>
		<path id="Vector" d="M41.87 46.45C42.28 46.87 42.98 46.87 43.39 46.44C43.8 46.01 43.79 45.28 43.38 44.86C42.91 44.38 42.21 44.38 41.8 44.81C41.4 45.23 41.4 45.97 41.87 46.45Z" fill="#64EE85" fill-opacity="1.000000" fill-rule="nonzero"/>
		<path id="Vector" d="M36.12 33.56C36.82 34.29 37.93 34.22 38.57 33.55C39.27 32.81 39.26 31.72 38.56 31C37.91 30.33 36.86 30.33 36.16 31.07C35.52 31.74 35.47 32.9 36.12 33.56Z" fill="#64EE85" fill-opacity="1.000000" fill-rule="nonzero"/>
		<path id="Vector" d="M28.16 41.94C28.86 42.67 29.91 42.66 30.61 41.93C31.25 41.25 31.3 40.1 30.6 39.37C29.95 38.71 28.84 38.77 28.2 39.45C27.51 40.18 27.51 41.28 28.16 41.94Z" fill="#64EE85" fill-opacity="1.000000" fill-rule="nonzero"/>
		<path id="Vector" d="M37.41 43.06C38.06 43.73 39.17 43.66 39.8 42.99C40.5 42.25 40.5 41.16 39.85 40.5C39.15 39.77 38.09 39.78 37.4 40.51C36.76 41.18 36.7 42.34 37.41 43.06Z" fill="#64EE85" fill-opacity="1.000000" fill-rule="nonzero"/>
		<path id="Vector" d="M32.42 38.66C33.3 39.56 34.76 39.49 35.64 38.58C36.51 37.66 36.5 36.2 35.61 35.29C34.73 34.38 33.27 34.33 32.4 35.25C31.53 36.17 31.54 37.75 32.42 38.66Z" fill="#64EE85" fill-opacity="1.000000" fill-rule="nonzero"/>
		<path id="Vector" d="M25.56 18.51C26.45 17.61 26.41 16.08 25.54 15.16C24.67 14.24 23.27 14.22 22.39 15.13C21.5 16.03 21.42 17.55 22.29 18.47C23.16 19.39 24.68 19.41 25.56 18.51Z" fill="#64EE85" fill-opacity="1.000000" fill-rule="nonzero"/>
		<path id="Vector" d="M34.74 28.29C35.63 27.39 35.64 25.93 34.78 25.01C33.91 24.08 32.45 24.01 31.56 24.91C30.68 25.81 30.66 27.39 31.53 28.31C32.39 29.24 33.85 29.19 34.74 28.29Z" fill="#64EE85" fill-opacity="1.000000" fill-rule="nonzero"/>
		<path id="Vector" d="M26.88 22.83C25.74 21.58 25.85 19.7 27.05 18.52C28.19 17.39 30 17.38 31.14 18.63C32.21 19.81 32.17 21.76 31.03 22.88C29.83 24.07 27.97 24.01 26.88 22.83ZM15.97 33.6C14.84 32.35 14.94 30.47 16.08 29.35C17.28 28.16 19.03 28.21 20.17 29.46C21.25 30.64 21.26 32.53 20.06 33.71C18.92 34.84 17.05 34.79 15.97 33.6Z" fill="#64EE85" fill-opacity="1.000000" fill-rule="nonzero"/>
		<path id="Vector" d="M40.37 15.5C40.79 15.09 41.5 15.11 41.95 15.6C42.35 16.04 42.32 16.77 41.91 17.18C41.43 17.66 40.73 17.64 40.33 17.2C39.88 16.71 39.9 15.98 40.37 15.5Z" fill="#64EE85" fill-opacity="1.000000" fill-rule="nonzero"/>
		<path id="Vector" d="M33.11 7.44C33.53 7.03 34.24 7.05 34.63 7.48C35.09 7.98 35.07 8.71 34.65 9.13C34.17 9.6 33.47 9.58 33.01 9.08C32.62 8.64 32.63 7.92 33.11 7.44Z" fill="#64EE85" fill-opacity="1.000000" fill-rule="nonzero"/>
		<path id="Vector" d="M36.78 4.68C37.12 4.34 37.69 4.36 38.02 4.71C38.39 5.12 38.38 5.71 38.03 6.05C37.64 6.44 37.07 6.42 36.7 6.01C36.38 5.66 36.39 5.07 36.78 4.68Z" fill="#64EE85" fill-opacity="1.000000" fill-rule="nonzero"/>
		<path id="Vector" d="M43.62 11.98C43.97 11.65 44.54 11.66 44.86 12.02C45.23 12.43 45.22 13.02 44.87 13.36C44.48 13.74 43.91 13.73 43.54 13.32C43.22 12.96 43.23 12.37 43.62 11.98Z" fill="#64EE85" fill-opacity="1.000000" fill-rule="nonzero"/>
		<path id="Vector" d="M42.21 6.49C42.63 6.07 43.33 6.09 43.73 6.53C44.13 6.96 44.11 7.69 43.69 8.11C43.21 8.58 42.51 8.56 42.11 8.13C41.72 7.69 41.73 6.96 42.21 6.49Z" fill="#64EE85" fill-opacity="1.000000" fill-rule="nonzero"/>
		<path id="Vector" d="M36.2 19.25C36.92 18.54 38.03 18.63 38.65 19.32C39.33 20.06 39.31 21.15 38.59 21.87C37.93 22.52 36.88 22.49 36.19 21.74C35.57 21.06 35.54 19.9 36.2 19.25Z" fill="#64EE85" fill-opacity="1.000000" fill-rule="nonzero"/>
		<path id="Vector" d="M28.41 10.7C29.13 9.99 30.18 10.02 30.86 10.76C31.49 11.45 31.52 12.6 30.8 13.32C30.14 13.97 29.03 13.88 28.4 13.19C27.72 12.44 27.75 11.35 28.41 10.7Z" fill="#64EE85" fill-opacity="1.000000" fill-rule="nonzero"/>
		<path id="Vector" d="M37.68 9.77C38.34 9.12 39.45 9.21 40.08 9.9C40.76 10.64 40.73 11.74 40.07 12.39C39.35 13.1 38.3 13.08 37.62 12.32C36.99 11.64 36.96 10.48 37.68 9.77Z" fill="#64EE85" fill-opacity="1.000000" fill-rule="nonzero"/>
		<path id="Vector" d="M32.6 14.07C33.5 13.19 34.96 13.29 35.82 14.22C36.67 15.16 36.63 16.62 35.73 17.5C34.83 18.39 33.37 18.41 32.52 17.48C31.67 16.54 31.71 14.96 32.6 14.07Z" fill="#64EE85" fill-opacity="1.000000" fill-rule="nonzero"/>
		<path id="Vector" d="M13.26 43.27C12.85 43.7 12.86 44.43 13.33 44.91C13.74 45.33 14.44 45.33 14.85 44.9C15.32 44.41 15.31 43.68 14.9 43.26C14.43 42.78 13.73 42.78 13.26 43.27Z" fill="#64EE85" fill-opacity="1.000000" fill-rule="nonzero"/>
		<path id="Vector" d="M5.67 35.55C5.26 35.97 5.26 36.7 5.68 37.13C6.15 37.61 6.85 37.61 7.26 37.18C7.72 36.69 7.71 35.96 7.25 35.47C6.83 35.05 6.13 35.06 5.67 35.55Z" fill="#64EE85" fill-opacity="1.000000" fill-rule="nonzero"/>
		<path id="Vector" d="M2.94 39.3C2.61 39.66 2.61 40.25 2.95 40.59C3.33 40.99 3.9 40.98 4.23 40.63C4.62 40.24 4.61 39.64 4.23 39.25C3.89 38.9 3.32 38.91 2.94 39.3Z" fill="#64EE85" fill-opacity="1.000000" fill-rule="nonzero"/>
		<path id="Vector" d="M9.82 46.58C9.48 46.93 9.49 47.52 9.82 47.87C10.21 48.26 10.78 48.26 11.11 47.91C11.48 47.51 11.48 46.92 11.1 46.53C10.76 46.18 10.19 46.18 9.82 46.58Z" fill="#64EE85" fill-opacity="1.000000" fill-rule="nonzero"/>
		<path id="Vector" d="M4.56 44.99C4.16 45.42 4.16 46.15 4.57 46.58C4.98 47 5.69 46.99 6.09 46.56C6.55 46.08 6.55 45.35 6.14 44.92C5.73 44.5 5.03 44.51 4.56 44.99Z" fill="#64EE85" fill-opacity="1.000000" fill-rule="nonzero"/>
		<path id="Vector" d="M16.94 39C16.25 39.73 16.31 40.89 16.96 41.55C17.66 42.28 18.71 42.28 19.41 41.54C20.05 40.87 20.04 39.77 19.34 39.05C18.69 38.38 17.58 38.33 16.94 39Z" fill="#64EE85" fill-opacity="1.000000" fill-rule="nonzero"/>
		<path id="Vector" d="M8.9 30.72C8.2 31.45 8.21 32.55 8.91 33.27C9.56 33.93 10.67 33.99 11.36 33.26C12 32.58 11.94 31.43 11.29 30.76C10.59 30.04 9.53 30.04 8.9 30.72Z" fill="#64EE85" fill-opacity="1.000000" fill-rule="nonzero"/>
		<path id="Vector" d="M7.82 40.35C7.17 41.02 7.24 42.18 7.89 42.84C8.59 43.57 9.64 43.56 10.28 42.89C10.98 42.15 10.98 41.06 10.27 40.33C9.62 39.67 8.51 39.61 7.82 40.35Z" fill="#64EE85" fill-opacity="1.000000" fill-rule="nonzero"/>
		<path id="Vector" d="M12.05 35.15C11.18 36.07 11.24 37.59 12.12 38.5C13.01 39.41 14.41 39.39 15.28 38.48C16.15 37.56 16.2 36.04 15.32 35.13C14.44 34.23 12.92 34.24 12.05 35.15Z" fill="#64EE85" fill-opacity="1.000000" fill-rule="nonzero"/>
		<path id="Vector" d="M59.73 27.96C58.95 27.64 58.23 27.27 57.57 26.87C56.9 26.46 56.32 25.98 55.84 25.41C55.36 24.84 54.98 24.17 54.71 23.4C54.45 22.64 54.31 21.72 54.31 20.66C54.31 19.35 54.53 18.2 54.97 17.2C55.4 16.21 56.02 15.37 56.8 14.69C57.59 14 58.54 13.49 59.65 13.13C60.77 12.78 62 12.61 63.36 12.61C64.48 12.61 65.61 12.73 66.78 12.96C67.94 13.2 69.33 13.61 70.96 14.19L68.48 18.81C66.91 18.03 65.25 17.64 63.51 17.64C63.17 17.64 62.82 17.67 62.45 17.75C62.09 17.83 61.76 17.96 61.47 18.15C61.18 18.34 60.94 18.59 60.74 18.92C60.55 19.25 60.45 19.68 60.45 20.21C60.45 20.64 60.53 20.99 60.69 21.27C60.85 21.55 61.05 21.78 61.29 21.99C61.53 22.19 61.81 22.36 62.13 22.5C62.44 22.64 62.76 22.77 63.07 22.89L65.21 23.76C66.13 24.14 66.98 24.54 67.74 24.96C68.5 25.37 69.15 25.88 69.68 26.47C70.22 27.06 70.63 27.79 70.92 28.64C71.21 29.5 71.35 30.57 71.35 31.86C71.35 33.15 71.13 34.32 70.68 35.38C70.23 36.44 69.58 37.34 68.72 38.08C67.86 38.83 66.8 39.41 65.54 39.82C64.28 40.24 62.84 40.45 61.22 40.45C60.47 40.45 59.78 40.42 59.15 40.37C58.52 40.32 57.9 40.23 57.31 40.11C56.72 39.98 56.12 39.83 55.53 39.65C54.94 39.47 54.3 39.25 53.62 38.97L54.86 33.67C55.85 33.95 56.83 34.2 57.78 34.41C58.74 34.63 59.72 34.73 60.71 34.73C62.04 34.73 63.06 34.55 63.76 34.19C64.46 33.82 64.88 33.12 65 32.09C65.04 31.56 64.98 31.12 64.81 30.76C64.64 30.41 64.4 30.11 64.09 29.87C63.77 29.63 63.42 29.44 63.03 29.29L61.87 28.83L59.73 27.96ZM89.01 37.91C88.04 38.72 87 39.32 85.89 39.71C84.77 40.1 83.64 40.29 82.47 40.29C81.21 40.29 80.03 40.12 78.91 39.77C77.8 39.41 76.82 38.84 75.99 38.04C75.15 37.25 74.49 36.22 74.01 34.94C73.52 33.67 73.28 32.12 73.28 30.31C73.28 28.52 73.52 26.99 74.01 25.71C74.49 24.44 75.15 23.39 75.99 22.57C76.82 21.75 77.8 21.15 78.91 20.76C80.03 20.37 81.21 20.17 82.47 20.17C83.25 20.17 84.1 20.28 85.02 20.51C85.94 20.74 86.86 21.08 87.78 21.53L85.38 25.62C84.97 25.42 84.48 25.27 83.93 25.18C83.37 25.09 82.89 25.05 82.47 25.05C81.36 25.05 80.43 25.46 79.69 26.28C78.96 27.1 78.59 28.44 78.59 30.31C78.59 31.27 78.68 32.05 78.88 32.65C79.07 33.26 79.34 33.75 79.69 34.13C80.05 34.51 80.46 34.78 80.93 34.96C81.4 35.14 81.92 35.25 82.47 35.3C83.22 35.38 83.97 35.31 84.71 35.11C85.45 34.91 86.11 34.58 86.69 34.13L89.01 37.91ZM98.75 20.06C100.01 20.06 101.19 20.24 102.28 20.61C103.37 20.97 104.31 21.56 105.09 22.36C105.88 23.17 106.5 24.22 106.95 25.5C107.39 26.79 107.62 28.34 107.62 30.16C107.62 31.97 107.39 33.52 106.95 34.81C106.5 36.1 105.88 37.14 105.09 37.95C104.31 38.76 103.37 39.34 102.28 39.71C101.19 40.07 100.01 40.26 98.75 40.26C97.47 40.26 96.29 40.07 95.21 39.71C94.13 39.34 93.2 38.76 92.41 37.95C91.62 37.14 91.01 36.1 90.56 34.81C90.11 33.52 89.89 31.97 89.89 30.16C89.89 28.37 90.11 26.83 90.56 25.56C91.01 24.29 91.62 23.24 92.41 22.42C93.2 21.6 94.13 21 95.21 20.62C96.29 20.25 97.47 20.06 98.75 20.06ZM98.75 35.3C99.84 35.3 100.7 34.92 101.31 34.17C101.93 33.41 102.24 32.07 102.24 30.16C102.24 28.24 101.93 26.9 101.31 26.13C100.7 25.36 99.84 24.97 98.75 24.97C97.69 24.97 96.83 25.37 96.19 26.17C95.55 26.96 95.23 28.29 95.23 30.16C95.23 32.07 95.54 33.41 96.17 34.17C96.8 34.92 97.66 35.3 98.75 35.3ZM117.97 20.97C118.26 20.76 118.67 20.57 119.19 20.38C119.71 20.19 120.3 20.1 120.95 20.1C121.51 20.1 121.96 20.12 122.32 20.17C122.67 20.22 122.84 20.23 122.84 20.21L122.84 25.24C122.29 25.19 121.74 25.18 121.21 25.2C120.75 25.25 120.27 25.33 119.77 25.45C119.28 25.56 118.82 25.77 118.41 26.07C117.93 26.42 117.58 26.9 117.37 27.51C117.17 28.11 117.07 28.95 117.07 30.01L117.07 40.07L111.61 40.07L111.61 25.05L108.67 25.05L111 20.25L117.07 20.25L117.07 21.72C117.19 21.62 117.3 21.52 117.39 21.42C117.49 21.34 117.59 21.26 117.68 21.17C117.78 21.08 117.88 21.02 117.97 20.97ZM132.18 20.06C133.44 20.06 134.57 20.24 135.58 20.61C136.58 20.97 137.42 21.56 138.1 22.38C138.78 23.2 139.3 24.26 139.67 25.54C140.03 26.83 140.21 28.38 140.21 30.19L140.21 30.78L140.14 31.97L129.96 31.97L129.2 31.86C129.23 32.59 129.3 33.18 129.44 33.62C129.57 34.06 129.76 34.41 130.02 34.66C130.27 34.91 130.58 35.09 130.95 35.19C131.31 35.29 131.72 35.35 132.18 35.38C132.93 35.43 133.58 35.31 134.12 35.04C134.67 34.76 135.18 34.19 135.67 33.33C136.42 33.59 137.11 33.83 137.74 34.05C138.27 34.25 138.76 34.43 139.19 34.58C139.63 34.73 139.85 34.8 139.85 34.77C138.98 36.66 137.92 38.04 136.67 38.91C135.42 39.78 133.92 40.22 132.18 40.22C130.9 40.22 129.73 40.04 128.69 39.69C127.65 39.34 126.77 38.76 126.04 37.97C125.31 37.17 124.75 36.14 124.35 34.87C123.95 33.59 123.75 32.04 123.75 30.19C123.75 28.4 123.95 26.87 124.35 25.6C124.75 24.33 125.31 23.28 126.04 22.46C126.77 21.64 127.65 21.03 128.69 20.64C129.73 20.25 130.9 20.06 132.18 20.06ZM134.18 27.62L134.72 27.7C134.67 26.82 134.45 26.13 134.05 25.64C133.65 25.14 133.03 24.9 132.18 24.9C131.21 24.9 130.52 25.14 130.09 25.64C129.67 26.13 129.41 26.82 129.31 27.7C129.43 27.67 129.54 27.65 129.64 27.64C129.73 27.63 129.84 27.62 129.96 27.62L134.18 27.62ZM140.79 40.03L146.68 29.85C146.41 29.4 146.13 28.91 145.84 28.38C145.58 27.93 145.29 27.41 144.97 26.83C144.66 26.25 144.33 25.66 143.99 25.05C143.19 23.66 142.28 22.06 141.26 20.25L147.44 20.25L150.35 25.2L153.11 20.25L159.54 20.28L153.91 29.85L159.72 40.03L153.73 40.03L150.35 33.9L146.64 40.03L140.79 40.03Z" fill="#FBFBFB" fill-opacity="1.000000" fill-rule="nonzero"/>
	</g>
</svg>
